<?xml version="1.0" standalone="no"?>
<!DOCTYPE svg PUBLIC "-//W3C//DTD SVG 20010904//EN"
 "http://www.w3.org/TR/2001/REC-SVG-20010904/DTD/svg10.dtd">
<svg version="1.0" xmlns="http://www.w3.org/2000/svg"
 width="700.000000pt" height="700.000000pt" viewBox="0 0 700.000000 700.000000"
 preserveAspectRatio="xMidYMid meet">
<metadata>
Created by potrace 1.14, written by Peter Selinger 2001-2017
</metadata>
<g transform="translate(0.000000,700.000000) scale(0.100000,-0.100000)"
fill="#000000" stroke="none">
<path d="M3277 6384 c-1 -1 -29 -5 -62 -8 -134 -14 -268 -53 -400 -115 -219
-103 -480 -318 -642 -531 -27 -36 -180 -236 -339 -445 -267 -349 -408 -535
-426 -560 -4 -5 -18 -23 -31 -40 -24 -29 -172 -223 -352 -460 -50 -66 -222
-291 -381 -500 -160 -209 -305 -402 -323 -428 -84 -124 -197 -377 -250 -562
-23 -80 -51 -214 -51 -245 l0 -20 887 2 886 3 429 570 c236 314 576 765 756
1004 180 239 331 441 336 449 6 10 11 1464 7 1849 -1 36 -4 42 -21 40 -12 -1
-22 -2 -23 -3z"/>
<path d="M3679 6356 c0 -17 0 -440 -1 -939 l0 -908 373 -497 c205 -273 381
-506 391 -516 10 -11 18 -23 18 -26 0 -4 8 -16 18 -28 10 -11 27 -33 38 -47
10 -15 29 -39 41 -53 13 -15 23 -30 23 -34 0 -4 6 -13 13 -20 7 -7 149 -194
315 -415 l303 -403 884 0 885 0 0 23 c0 37 -48 236 -81 335 -69 211 -163 395
-283 557 -71 94 -282 371 -641 840 -46 61 -211 277 -367 481 -156 205 -293
385 -305 400 -12 16 -101 133 -197 259 -96 127 -179 235 -183 240 -5 6 -38 48
-73 95 -87 114 -92 120 -195 221 -238 232 -500 387 -735 433 -14 3 -34 7 -45
9 -22 5 -121 18 -167 22 -25 2 -28 -1 -29 -29z"/>
<path d="M5 2150 c3 -52 10 -122 16 -155 5 -33 12 -71 14 -84 2 -13 7 -26 10
-29 6 -6 2954 -10 2990 -4 19 3 20 11 20 177 0 95 -3 177 -7 181 -4 4 -692 8
-1528 8 l-1519 1 4 -95z"/>
<path d="M3951 2240 c-5 -4 -7 -314 -2 -355 1 -10 2995 -14 3006 -4 19 20 55
358 38 360 -34 4 -3036 3 -3042 -1z"/>
<path d="M124 1612 c19 -52 72 -156 112 -220 19 -29 34 -55 34 -58 0 -2 8 -13
18 -24 17 -19 48 -19 1392 -17 l1375 2 1 165 c0 91 -2 171 -4 178 -3 9 -307
12 -1473 12 l-1468 0 13 -38z"/>
<path d="M3945 1473 l0 -178 1378 -2 1378 -2 35 56 c50 77 109 188 133 251
l21 52 -1473 0 -1473 0 1 -177z"/>
<path d="M500 1063 c0 -13 168 -148 249 -200 190 -122 446 -213 671 -239 64
-7 1576 -13 1616 -6 20 4 21 8 20 225 l-1 222 -1278 0 c-702 1 -1277 -1 -1277
-2z"/>
<path d="M3948 1040 c-2 -14 -3 -115 -3 -225 l0 -200 780 0 c429 0 807 3 840
7 248 32 440 95 639 212 108 63 295 207 296 226 0 3 -573 6 -1274 6 l-1274 0
-4 -26z"/>
</g>
</svg>
